<svg 
 xmlns="http://www.w3.org/2000/svg"
 xmlns:xlink="http://www.w3.org/1999/xlink"
 width="15px" height="27px">
<path fill-rule="evenodd"  fill="rgb(255, 255, 255)"
 d="M13.661,0.005 L10.256,-0.001 C6.431,-0.001 3.959,2.607 3.959,6.645 L3.959,9.708 L0.535,9.708 C0.240,9.708 0.000,9.955 0.000,10.259 L0.000,14.698 C0.000,15.002 0.240,15.249 0.535,15.249 L3.959,15.249 L3.959,26.450 C3.959,26.754 4.198,27.000 4.494,27.000 L8.960,27.000 C9.256,27.000 9.496,26.753 9.496,26.450 L9.496,15.249 L13.498,15.249 C13.794,15.249 14.034,15.002 14.034,14.698 L14.035,10.259 C14.035,10.113 13.979,9.973 13.879,9.870 C13.778,9.766 13.642,9.708 13.500,9.708 L9.496,9.708 L9.496,7.111 C9.496,5.863 9.785,5.229 11.366,5.229 L13.660,5.228 C13.956,5.228 14.195,4.982 14.195,4.678 L14.195,0.556 C14.195,0.252 13.956,0.005 13.661,0.005 Z"/>
</svg>