<svg xmlns="http://www.w3.org/2000/svg" width="23.03" height="23.56" viewBox="0 0 23.03 23.56">
  <defs>
    <style>
      .cls-1 {
        fill: #fff;
        fill-rule: evenodd;
      }
    </style>
  </defs>
  <path id="Forma_1" data-name="Forma 1" class="cls-1" d="M1022.32,5937.26a1.473,1.473,0,0,1-1.45,1.49h-1.38a1.475,1.475,0,0,1-1.46-1.49v-1.41a1.475,1.475,0,0,1,1.46-1.49h1.38a1.473,1.473,0,0,1,1.45,1.49v1.41h0Zm0,13.7a1.56,1.56,0,0,1-1.55,1.49h-14.53a1.615,1.615,0,0,1-1.61-1.49v-7.43a1.615,1.615,0,0,1,1.61-1.49h0.82a0.808,0.808,0,0,1,.16.01,0.626,0.626,0,0,1,.53.58,0.757,0.757,0,0,1-.01.15,0.607,0.607,0,0,1,.07.1c-0.02.22,0.04,0.43,0.04,0.65h0a5.816,5.816,0,0,0,5.63,5.94h0.04a5.867,5.867,0,0,0,5.8-5.94c0-.22-0.02-0.43-0.04-0.65a0.34,0.34,0,0,1-.01-0.1,0.757,0.757,0,0,1-.01-0.15,0.636,0.636,0,0,1,.53-0.58,0.808,0.808,0,0,1,.16-0.01h0.82a1.56,1.56,0,0,1,1.55,1.49v7.43h0Zm-11.72-7.43s0.23-2.97,2.91-2.97,2.9,2.97,2.9,2.97A2.906,2.906,0,1,1,1010.6,5943.53Zm11.49-11.9h-17.23a2.945,2.945,0,0,0-2.91,2.97v17.62a2.945,2.945,0,0,0,2.91,2.97h17.23a2.939,2.939,0,0,0,2.91-2.97V5934.6a2.939,2.939,0,0,0-2.91-2.97" transform="translate(-1001.97 -5931.63)"/>
</svg>
