<svg xmlns="http://www.w3.org/2000/svg" width="27" height="22" viewBox="0 0 27 22">
  <defs>
    <style>
      .cls-1 {
        fill: #fff;
        fill-rule: evenodd;
      }
    </style>
  </defs>
  <path id="Forma_1" data-name="Forma 1" class="cls-1" d="M970.255,5932.41a11.249,11.249,0,0,1-3.519,1.34,5.541,5.541,0,0,0-9.582,3.8,5.644,5.644,0,0,0,.143,1.27,15.7,15.7,0,0,1-11.416-5.8,5.567,5.567,0,0,0,1.714,7.41,5.476,5.476,0,0,1-2.508-.7v0.07a5.558,5.558,0,0,0,4.442,5.45,5.4,5.4,0,0,1-1.459.2,5.141,5.141,0,0,1-1.043-.11,5.538,5.538,0,0,0,5.173,3.86,11.092,11.092,0,0,1-6.878,2.38,11.529,11.529,0,0,1-1.322-.08,15.616,15.616,0,0,0,8.491,2.5c10.188,0,15.759-8.46,15.759-15.81l-0.018-.72A11.049,11.049,0,0,0,971,5934.6a11.3,11.3,0,0,1-3.18.88A5.6,5.6,0,0,0,970.255,5932.41Z" transform="translate(-944 -5932)"/>
</svg>
