<?xml version="1.0" encoding="UTF-8" standalone="no"?>
<svg
   xmlns:dc="http://purl.org/dc/elements/1.1/"
   xmlns:cc="http://creativecommons.org/ns#"
   xmlns:rdf="http://www.w3.org/1999/02/22-rdf-syntax-ns#"
   xmlns:svg="http://www.w3.org/2000/svg"
   xmlns="http://www.w3.org/2000/svg"
   xmlns:sodipodi="http://sodipodi.sourceforge.net/DTD/sodipodi-0.dtd"
   xmlns:inkscape="http://www.inkscape.org/namespaces/inkscape"
   width="80"
   height="80"
   version="1.1"
   id="svg14"
   sodipodi:docname="icon_apple.svg"
   inkscape:version="0.92.4 (5da689c313, 2019-01-14)">
  <metadata
     id="metadata20">
    <rdf:RDF>
      <cc:Work
         rdf:about="">
        <dc:format>image/svg+xml</dc:format>
        <dc:type
           rdf:resource="http://purl.org/dc/dcmitype/StillImage" />
        <dc:title>Apple Logo White</dc:title>
      </cc:Work>
    </rdf:RDF>
  </metadata>
  <defs
     id="defs18" />
  <sodipodi:namedview
     pagecolor="#ffffff"
     bordercolor="#666666"
     borderopacity="1"
     objecttolerance="10"
     gridtolerance="10"
     guidetolerance="10"
     inkscape:pageopacity="0"
     inkscape:pageshadow="2"
     inkscape:window-width="1899"
     inkscape:window-height="1199"
     id="namedview16"
     showgrid="false"
     units="px"
     showborder="false"
     inkscape:zoom="7.6670051"
     inkscape:cx="25.257094"
     inkscape:cy="52.369526"
     inkscape:window-x="0"
     inkscape:window-y="0"
     inkscape:window-maximized="0"
     inkscape:current-layer="layer4" />
  <title
     id="title2">Apple Logo White</title>
  <g
     inkscape:groupmode="layer"
     id="layer4"
     inkscape:label="Layer 2"
     style="display:inline"
     transform="translate(0,-905)">
    <g
       id="g12"
       transform="matrix(0.09434989,0,0,0.08074383,0.5447548,905.03463)">
      <title
         id="title4">Layer 1</title>
      <path
         d="M 776.20001,333.79999 776.5,334 v 1 1 l -0.29999,0.20001 L 776,336.5 758.20001,349.79999 C 746.40002,358.60001 736,367.66666 727,377 c -9,9.33334 -17,19.5 -24,30.5 -7,11 -12.66669,22 -17,33 -4.33331,11 -7.66669,22.16666 -10,33.5 -2.33331,11.33334 -3.5,27 -3.5,47 0,20 1.33331,36.33331 4,49 2.66669,12.66669 6.5,25 11.5,37 5,12 11,23.33331 18,34 7,10.66669 14.33331,20 22,28 7.66669,8 15.59998,15.40002 23.79999,22.20001 8.13336,6.86664 17.53332,13.46668 28.20001,19.79999 10.66669,6.33331 16.5,9.66669 17.5,10 l 1.5,0.5 1,0.5 1,0.5 1,0.29999 1,0.20001 v 1 1 l -13.20001,33 c -8.86664,22 -18.06665,41.73334 -27.59998,59.20001 C 752.73334,834.73334 741.66669,852.66669 729,871 c -12.66669,18.33331 -24.06665,33.59998 -34.20001,45.79999 -10.20001,12.13336 -19.53333,22.13336 -28,30 C 658.26666,954.59998 649.5,961.16669 640.5,966.5 c -9,5.33331 -18,9.33331 -27,12 -9,2.66669 -14.83331,4.16669 -17.5,4.5 l -4,0.5 -1,0.29999 -1,0.20001 -8,-0.20001 C 576.66669,983.59998 568.66669,982.5 558,980.5 c -10.66669,-2 -26.83331,-6.83331 -48.5,-14.5 -21.66666,-7.66669 -38.66666,-12.83331 -51,-15.5 -12.33334,-2.66669 -25,-4 -38,-4 -13,0 -24.66666,1 -35,3 -10.33334,2 -25.33334,6.5 -45,13.5 -19.66666,7 -35.66666,12.16669 -48,15.5 l -18.5,5 -4,0.5 -4,0.5 V 984.79999 985 H 256 246 V 984.79999 984.5 l -3.5,-0.5 -3.5,-0.5 -2,-0.5 c -1.33333,-0.33331 -3.66667,-1 -7,-2 -3.33333,-1 -9.16667,-3.5 -17.5,-7.5 -8.33333,-4 -17.33333,-9.83331 -27,-17.5 -9.66667,-7.66669 -18.66667,-16 -27,-25 -8.33333,-9 -19.43333,-22.73334 -33.3,-41.20001 C 111.4,871.26666 99.599999,854.06665 89.800003,838.20001 79.933327,822.40002 70.400001,804.93335 61.200001,785.79999 52.06667,766.59998 43.666672,746.33331 36,725 28.33333,703.66669 21.83333,682 16.5,660 11.16667,638 7.06667,615.33331 4.2,592 L 0,557 V 534.5 512 h 0.2 0.3 l 3,-26 c 2,-17.33334 5,-33.66666 9,-49 4,-15.33334 8.83333,-29.5 14.5,-42.5 C 32.666672,381.5 39.166672,369 46.5,357 53.833328,345 61.26667,334.60001 68.800003,325.79999 76.26667,316.93332 84.166656,308.66666 92.5,301 c 8.33334,-7.66666 18.83334,-15.5 31.5,-23.5 12.66667,-8 25.5,-14.66666 38.5,-20 13,-5.33333 26,-9.33333 39,-12 13,-2.66667 27.16667,-4 42.5,-4 15.33334,0 31,2 47,6 16,4 36.16666,10.33334 60.5,19 24.33334,8.66666 38.66666,13.5 43,14.5 4.33334,1 9.5,1.33334 15.5,1 6,-0.33334 26.16666,-6.33334 60.5,-18 34.33334,-11.66667 58.16669,-18.83333 71.5,-21.5 13.33331,-2.66667 27.5,-4 42.5,-4 15,0 30.83331,1.66667 47.5,5 16.66669,3.33333 31,7.33333 43,12 12,4.66666 23.26666,10.10001 33.79999,16.29999 C 719.26666,277.93332 729,284.83334 738,292.5 c 9,7.66666 17.16669,15.83334 24.5,24.5 7.33331,8.66666 11.43335,13.60001 12.29999,14.79999 0.79999,1.13333 1.26666,1.80002 1.40002,2 z"
         id="svg_1"
         inkscape:connector-curvature="0"
         style="fill:#ffffff;fill-rule:evenodd;stroke:#221e20;stroke-width:0.5px" />
      <path
         d="M 0,256 V 0 H 295.5 591 v 0.2 c 0,0.2 -3.83331,0.96667 -11.5,2.3 -7.66669,1.33333 -17.66669,4.16667 -30,8.5 -12.33331,4.33333 -24,9.5 -35,15.5 -11,6 -21.33334,12.666672 -31,20 -9.66666,7.333328 -18.33334,15.333328 -26,24 -7.66666,8.666656 -14.83334,17.833344 -21.5,27.5 -6.66666,9.66666 -12.60001,19.93333 -17.79999,30.8 C 413.06668,139.60001 409,151 406,163 c -3,12 -4.73334,25.66667 -5.20001,41 L 400,227 l 16.5,-0.2 c 11,-0.19999 22.5,-1.8 34.5,-4.8 12,-3 22.93332,-7.06667 32.79999,-12.2 9.80002,-5.19999 19.6,-11.73333 29.40002,-19.6 9.86664,-7.80001 18.86664,-16.26667 27,-25.4 8.20001,-9.19999 15.96668,-19.63333 23.29999,-31.3 7.33331,-11.66666 13.33331,-23 18,-34 4.66669,-11 8.33331,-22 11,-33 2.66669,-11 4.33331,-23 5,-36 0.66669,-13 0.90002,-21.33333 0.70001,-25 L 598,0 H 700.5 803 V 361.5 723 l -1,-0.20001 -1,-0.29999 -1,-0.5 -1,-0.5 -1.5,-0.5 c -1,-0.33331 -6.83331,-3.66669 -17.5,-10 -10.66669,-6.33331 -20.06665,-12.93335 -28.20001,-19.79999 C 743.59998,684.40002 735.66669,677 728,669 c -7.66669,-8 -15,-17.33331 -22,-28 -7,-10.66669 -13,-22 -18,-34 -5,-12 -8.83331,-24.33331 -11.5,-37 -2.66669,-12.66669 -4,-29 -4,-49 0,-20 1.16669,-35.66666 3.5,-47 2.33331,-11.33334 5.66669,-22.5 10,-33.5 4.33331,-11 10,-22 17,-33 7,-11 15,-21.16666 24,-30.5 9,-9.33334 19.40002,-18.39999 31.20001,-27.20001 L 776,336.5 776.20001,336.20001 776.5,336 v -1 -1 l -0.29999,-0.20001 c -0.13336,-0.19998 -0.60004,-0.86667 -1.40002,-2 C 773.93335,330.60001 769.83331,325.66666 762.5,317 755.16669,308.33334 747,300.16666 738,292.5 729,284.83334 719.26666,277.93332 708.79999,271.79999 698.26666,265.60001 687,260.16666 675,255.5 c -12,-4.66667 -26.33331,-8.66667 -43,-12 -16.66669,-3.33333 -32.5,-5 -47.5,-5 -15,0 -29.16669,1.33333 -42.5,4 -13.33331,2.66667 -37.16666,9.83333 -71.5,21.5 -34.33334,11.66666 -54.5,17.66666 -60.5,18 -6,0.33334 -11.16666,0 -15.5,-1 -4.33334,-1 -18.66666,-5.83334 -43,-14.5 -24.33334,-8.66666 -44.5,-15 -60.5,-19 -16,-4 -31.66666,-6 -47,-6 -15.33333,0 -29.5,1.33333 -42.5,4 -13,2.66667 -26,6.66667 -39,12 -13,5.33334 -25.83333,12 -38.5,20 -12.66666,8 -23.16666,15.83334 -31.5,23.5 -8.333344,7.66666 -16.23333,15.93332 -23.699997,24.79999 C 61.26667,334.60001 53.833328,345 46.5,357 39.166672,369 32.666672,381.5 27,394.5 c -5.66667,13 -10.5,27.16666 -14.5,42.5 -4,15.33334 -7,31.66666 -9,49 l -3,26 H 0.2 0 Z"
         id="svg_2"
         inkscape:connector-curvature="0"
         style="fill:none;fill-rule:evenodd;stroke:#ffffff;stroke-width:0.5px" />
      <path
         d="M 0,771 V 557 l 4.2,35 c 2.86667,23.33331 6.96667,46 12.3,68 5.33333,22 11.83333,43.66669 19.5,65 7.666672,21.33331 16.066669,41.59998 25.200001,60.79999 9.200001,19.13336 18.733326,36.60004 28.600002,52.40002 C 99.599998,854.06665 111.4,871.26666 125.2,889.79999 139.06667,908.26666 150.16667,922 158.5,931 c 8.33333,9 17.33333,17.33331 27,25 9.66667,7.66669 18.66667,13.5 27,17.5 8.33333,4 14.16667,6.5 17.5,7.5 3.33333,1 5.66667,1.66669 7,2 l 2,0.5 3.5,0.5 3.5,0.5 V 984.79999 985 H 123 0 Z"
         id="svg_3"
         inkscape:connector-curvature="0"
         style="fill:none;fill-rule:evenodd;stroke:#ffffff;stroke-width:0.5px" />
      <path
         d="M 591,0.2 V 0 h 3.5 3.5 l 0.20001,5.5 c 0.20001,3.66667 -0.0333,12 -0.70001,25 -0.66669,13 -2.33331,25 -5,36 -2.66669,11 -6.33331,22 -11,33 -4.66669,11 -10.66669,22.33334 -18,34 -7.33331,11.66667 -15.09998,22.10001 -23.29999,31.3 -8.13336,9.13333 -17.13336,17.59999 -27,25.4 -9.80002,7.86667 -19.6,14.40001 -29.40002,19.6 C 473.93332,214.93333 463,219 451,222 c -12,3 -23.5,4.60001 -34.5,4.8 L 400,227 400.79999,204 C 401.26666,188.66667 403,175 406,163 c 3,-12 7.06668,-23.39999 12.20001,-34.2 C 423.39999,117.93333 429.33334,107.66666 436,98 c 6.66666,-9.666656 13.83334,-18.833344 21.5,-27.5 7.66666,-8.666672 16.33334,-16.666672 26,-24 9.66666,-7.333328 20,-14 31,-20 11,-6 22.66669,-11.16667 35,-15.5 12.33331,-4.33333 22.33331,-7.16667 30,-8.5 C 587.16669,1.16667 591,0.4 591,0.2 Z"
         id="svg_4"
         inkscape:connector-curvature="0"
         style="fill:#ffffff;fill-rule:evenodd;stroke:#221e20;stroke-width:0.5px" />
      <path
         d="M 789.79999,758 803,725 V 855 985 H 696.5 590 v -0.5 -0.5 l 1,-0.20001 1,-0.29999 4,-0.5 c 2.66669,-0.33331 8.5,-1.83331 17.5,-4.5 9,-2.66669 18,-6.66669 27,-12 9,-5.33331 17.76666,-11.90002 26.29999,-19.70001 8.46667,-7.86664 17.79999,-17.86664 28,-30 C 704.93335,904.59998 716.33331,889.33331 729,871 741.66669,852.66669 752.73334,834.73334 762.20001,817.20001 771.73334,799.73334 780.93335,780 789.79999,758 Z"
         id="svg_5"
         inkscape:connector-curvature="0"
         style="fill:none;fill-rule:evenodd;stroke:#ffffff;stroke-width:0.5px" />
      <path
         d="M 582,983.79999 590,984 v 0.5 0.5 H 428 266 V 984.79999 984.5 l 4,-0.5 4,-0.5 18.5,-5 c 12.33334,-3.33331 28.33334,-8.5 48,-15.5 19.66666,-7 34.66666,-11.5 45,-13.5 10.33334,-2 22,-3 35,-3 13,0 25.66666,1.33331 38,4 12.33334,2.66669 29.33334,7.83331 51,15.5 21.66669,7.66669 37.83331,12.5 48.5,14.5 10.66669,2 18.66669,3.09998 24,3.29999 z"
         id="svg_6"
         inkscape:connector-curvature="0"
         style="fill:none;fill-rule:evenodd;stroke:#fefefe;stroke-width:0.5px" />
    </g>
  </g>
</svg>
